<?xml version="1.0" encoding="UTF-8" standalone="no"?>
<!DOCTYPE svg PUBLIC "-//W3C//DTD SVG 1.1//EN" "http://www.w3.org/Graphics/SVG/1.1/DTD/svg11.dtd">
<svg width="100%" height="100%" viewBox="0 0 113 98" version="1.1" xmlns="http://www.w3.org/2000/svg" xmlns:xlink="http://www.w3.org/1999/xlink" xml:space="preserve" xmlns:serif="http://www.serif.com/" style="fill-rule:evenodd;clip-rule:evenodd;stroke-linejoin:round;stroke-miterlimit:2;">
    <g transform="matrix(1.21652,0,0,1.21652,-92.9984,-94.3764)">
        <g transform="matrix(0.65879,0,0,0.65879,-284.255,-117.452)">
            <path d="M593.295,301.964C630.915,283.04 683.301,311.947 687.35,353.864C691.398,395.78 620.574,426.362 580.028,414.987C539.482,403.612 529.491,334.059 593.295,301.964Z" style="fill:rgb(0,180,255);fill-opacity:0.8;fill-rule:nonzero;"/>
        </g>
        <g transform="matrix(0.112059,0,0,0.112059,61.3146,62.6081)">
            <path d="M778,354.8C759.2,363.1 739.1,368.7 717.9,371.3C739.5,358.3 756.1,337.8 763.9,313.4C743.7,325.2 721.2,333.8 697.4,338.6C678.3,318.2 651.2,305.4 621,305.4C563.2,305.4 516.3,352.3 516.3,410C516.3,418.3 517.3,426.3 519,433.9C432,429.8 354.8,388 303.2,324.8C294.1,340.2 289,358 289,377.5C289,413.9 307.5,445.9 335.6,464.7C318.4,464.1 302.3,459.4 288.2,451.6L288.2,452.9C288.2,503.7 324.2,546 372.2,555.6C363.4,558 354.1,559.2 344.6,559.2C337.9,559.2 331.5,558.6 325.1,557.4C338.5,599 377.1,629.3 423.1,630.1C387.4,658.2 342,674.9 293.3,674.9C285,674.9 276.7,674.4 268.4,673.5C315,703.2 369.9,720.5 429.2,720.5C621.7,720.5 727,561 727,422.9C727,418.5 727,414 726.7,409.5C747.1,394.8 765,376.3 779,355.3L778,354.8Z" style="fill:white;fill-rule:nonzero;"/>
        </g>
    </g>
</svg>
