<?xml version="1.0" encoding="UTF-8" standalone="no"?>
<!DOCTYPE svg PUBLIC "-//W3C//DTD SVG 1.1//EN" "http://www.w3.org/Graphics/SVG/1.1/DTD/svg11.dtd">
<svg width="100%" height="100%" viewBox="0 0 421 191" version="1.1" xmlns="http://www.w3.org/2000/svg" xmlns:xlink="http://www.w3.org/1999/xlink" xml:space="preserve" xmlns:serif="http://www.serif.com/" style="fill-rule:evenodd;clip-rule:evenodd;stroke-linejoin:round;stroke-miterlimit:2;">
    <g transform="matrix(2.23522,-0.14389,0.0531414,0.825513,-981.756,-204.001)">
        <g transform="matrix(1,0,0,1,-0.627954,26.4128)">
            <path d="M458.504,408.175c-18.002,17.633 -15.665,49.575 0.89,68.574c16.556,18.998 43.446,26.322 68.61,24.974c25.163,-1.348 49.232,-10.229 71.582,-15.497l-4.384,-70.882c-48.473,0.487 -96.945,0.974 -136.698,-7.169Z" style="fill:rgb(246,69,81);fill-rule:nonzero;"/>
        </g>
        <g transform="matrix(1.72644,0.300926,-0.111138,4.67465,321.399,-198.629)">
            <g transform="matrix(85.5841,0,0,85.5841,70.688,153.796)">
                <path d="M0.288,-0.531c-0.001,0.092 -0.011,0.172 -0.028,0.241l-0.008,0.033c0.013,0 0.031,0.006 0.053,0.017c0.023,0.011 0.04,0.024 0.053,0.037c0.032,0.031 0.044,0.062 0.035,0.091c-0.01,0.03 -0.021,0.056 -0.035,0.078c-0.014,0.023 -0.036,0.04 -0.065,0.051c-0.014,0.005 -0.028,0.008 -0.041,0.008c-0.013,-0.001 -0.025,-0.004 -0.035,-0.009c-0.023,-0.013 -0.036,-0.034 -0.038,-0.064c-0.003,-0.05 0.005,-0.108 0.022,-0.175c-0.051,-0.001 -0.091,0.011 -0.122,0.036c-0.01,0.008 -0.019,0.02 -0.026,0.037c-0.007,0.017 -0.012,0.034 -0.014,0.052c-0.005,0.043 0.005,0.072 0.03,0.087c0.011,0.008 0.014,0.017 0.007,0.028c-0.006,0.01 -0.015,0.012 -0.028,0.007c-0.016,-0.01 -0.028,-0.024 -0.036,-0.042c-0.008,-0.017 -0.012,-0.039 -0.012,-0.066c0,-0.027 0.005,-0.053 0.016,-0.078c0.011,-0.025 0.025,-0.045 0.044,-0.06c0.038,-0.031 0.088,-0.045 0.151,-0.041l0.012,-0.043c0.001,-0.001 0.001,-0.001 0.001,0.001c-0.001,0.003 -0.002,0.006 -0.003,0.009c0.017,-0.069 0.026,-0.147 0.027,-0.234c0.003,-0.012 0.009,-0.018 0.019,-0.018c0.01,-0 0.017,0.006 0.021,0.017Zm0.055,0.446c0.006,-0.016 0.008,-0.032 0.006,-0.049c-0.003,-0.016 -0.011,-0.032 -0.024,-0.048c-0.014,-0.016 -0.037,-0.027 -0.069,-0.034c-0.005,-0.001 -0.01,-0.002 -0.015,-0.003c-0.009,0.033 -0.016,0.066 -0.021,0.099c-0.005,0.033 -0.001,0.066 0.011,0.098c0.031,0.013 0.059,0.006 0.086,-0.021c0.011,-0.011 0.02,-0.025 0.026,-0.042Z" style="fill-rule:nonzero;"/>
            </g>
            <g transform="matrix(85.5841,0,0,85.5841,110.399,153.796)">
                <path d="M0.012,-0.066c-0.008,-0.013 -0.011,-0.027 -0.012,-0.04c0,-0.014 0.006,-0.029 0.019,-0.045c0.012,-0.016 0.025,-0.03 0.04,-0.041c0.014,-0.011 0.029,-0.02 0.044,-0.026c0.015,-0.006 0.032,-0.01 0.049,-0.012c0.017,-0.002 0.036,-0.004 0.057,-0.006c-0.005,-0.01 -0.004,-0.017 0.001,-0.022c0.01,-0.009 0.02,-0.009 0.03,-0.002l0,0.001c0.026,0.005 0.047,0.017 0.064,0.035c0.016,0.018 0.027,0.039 0.032,0.062c0.005,0.023 0.005,0.047 0,0.072c-0.005,0.025 -0.017,0.046 -0.034,0.065c-0.014,0.015 -0.032,0.025 -0.053,0.031c-0.021,0.007 -0.038,0.011 -0.051,0.013c-0.013,0.003 -0.025,0.005 -0.036,0.007c-0.011,0.002 -0.024,0.001 -0.039,-0.004c-0.015,-0.004 -0.029,-0.01 -0.043,-0.019c-0.015,-0.009 -0.028,-0.019 -0.04,-0.031c-0.012,-0.012 -0.021,-0.025 -0.028,-0.038Zm0.282,-0.104c-0.004,-0.011 -0.009,-0.019 -0.014,-0.024c-0.005,-0.005 -0.008,-0.008 -0.009,-0.008c-0.001,-0.001 -0.001,-0.002 -0.002,-0.003c-0.005,0.003 -0.022,0.005 -0.051,0.007c-0.029,0.001 -0.053,0.004 -0.07,0.008c-0.017,0.003 -0.034,0.009 -0.049,0.018c-0.016,0.009 -0.029,0.019 -0.038,0.031c-0.01,0.012 -0.015,0.026 -0.016,0.041c-0.001,0.015 0.006,0.03 0.019,0.045c0.013,0.014 0.029,0.024 0.047,0.031c0.018,0.007 0.033,0.01 0.045,0.01c0.011,-0.001 0.023,-0.002 0.035,-0.004c0.013,-0.002 0.025,-0.005 0.037,-0.009c0.03,-0.009 0.048,-0.023 0.055,-0.04c0.017,-0.042 0.021,-0.076 0.011,-0.103Z" style="fill-rule:nonzero;"/>
            </g>
            <g transform="matrix(85.5841,0,0,85.5841,145.488,153.796)">
                <path d="M0.288,-0.531c-0.001,0.092 -0.011,0.172 -0.028,0.241l-0.008,0.033c0.013,0 0.031,0.006 0.053,0.017c0.023,0.011 0.04,0.024 0.053,0.037c0.032,0.031 0.044,0.062 0.035,0.091c-0.01,0.03 -0.021,0.056 -0.035,0.078c-0.014,0.023 -0.036,0.04 -0.065,0.051c-0.014,0.005 -0.028,0.008 -0.041,0.008c-0.013,-0.001 -0.025,-0.004 -0.035,-0.009c-0.023,-0.013 -0.036,-0.034 -0.038,-0.064c-0.003,-0.05 0.005,-0.108 0.022,-0.175c-0.051,-0.001 -0.091,0.011 -0.122,0.036c-0.01,0.008 -0.019,0.02 -0.026,0.037c-0.007,0.017 -0.012,0.034 -0.014,0.052c-0.005,0.043 0.005,0.072 0.03,0.087c0.011,0.008 0.014,0.017 0.007,0.028c-0.006,0.01 -0.015,0.012 -0.028,0.007c-0.016,-0.01 -0.028,-0.024 -0.036,-0.042c-0.008,-0.017 -0.012,-0.039 -0.012,-0.066c0,-0.027 0.005,-0.053 0.016,-0.078c0.011,-0.025 0.025,-0.045 0.044,-0.06c0.038,-0.031 0.088,-0.045 0.151,-0.041l0.012,-0.043c0.001,-0.001 0.001,-0.001 0.001,0.001c-0.001,0.003 -0.002,0.006 -0.003,0.009c0.017,-0.069 0.026,-0.147 0.027,-0.234c0.003,-0.012 0.009,-0.018 0.019,-0.018c0.01,-0 0.017,0.006 0.021,0.017Zm0.055,0.446c0.006,-0.016 0.008,-0.032 0.006,-0.049c-0.003,-0.016 -0.011,-0.032 -0.024,-0.048c-0.014,-0.016 -0.037,-0.027 -0.069,-0.034c-0.005,-0.001 -0.01,-0.002 -0.015,-0.003c-0.009,0.033 -0.016,0.066 -0.021,0.099c-0.005,0.033 -0.001,0.066 0.011,0.098c0.031,0.013 0.059,0.006 0.086,-0.021c0.011,-0.011 0.02,-0.025 0.026,-0.042Z" style="fill-rule:nonzero;"/>
            </g>
        </g>
    </g>
</svg>
