<?xml version="1.0" encoding="UTF-8" standalone="no"?>
<!DOCTYPE svg PUBLIC "-//W3C//DTD SVG 1.1//EN" "http://www.w3.org/Graphics/SVG/1.1/DTD/svg11.dtd">
<svg width="100%" height="100%" viewBox="0 0 368 368" version="1.1" xmlns="http://www.w3.org/2000/svg" xmlns:xlink="http://www.w3.org/1999/xlink" xml:space="preserve" xmlns:serif="http://www.serif.com/" style="fill-rule:evenodd;clip-rule:evenodd;stroke-linejoin:round;stroke-miterlimit:2;">
    <g transform="matrix(0.628335,0,0,0.628335,47.9704,1.40732e-06)">
        <g transform="matrix(1,0,0,1,-357.034,-104.462)">
            <path d="M358.65,333.431c124.235,-15.604 249.094,-31.862 373.926,-42.961c52.787,2.76 48.737,102.161 43.835,140.056c-7.76,60.644 -26.291,121.262 -18.966,183.024c-0.801,18.598 24.251,53.715 -9.165,50.797c-123.393,13.358 -247.544,18.417 -371.614,15.144c-15.296,2.757 -4.976,-10.571 -3.923,-19.901c13.705,-51.523 26.355,-103.879 29.584,-157.198c3.619,-60.207 -5.332,-123.14 -36.868,-175.336c28.862,50.59 37.063,111.262 32.937,169.76c-4.463,64.2 -23.504,128.019 -41.361,190.025c108.903,5.527 218.048,4.1 326.77,-4.272c35.851,-8.722 116.468,11.57 89.622,-49.932c-18.029,-77.175 13.845,-154.369 16.544,-231.579c0.728,-44.533 -6.178,-128.9 -68.363,-118.884c-118.775,14.147 -256.023,33.718 -362.958,51.257Z" style="fill-rule:nonzero;stroke:black;stroke-width:15.92px;"/>
        </g>
        <g transform="matrix(1,0,0,1,-357.034,-104.462)">
            <path d="M697.951,419.687c-59.965,-15.383 -124.67,-5.842 -179.056,23.096c56.574,-14.753 121.216,-21.273 179.056,-23.096Z" style="fill-rule:nonzero;stroke:black;stroke-width:15.92px;"/>
        </g>
        <g transform="matrix(1,0,0,1,-357.034,-104.462)">
            <path d="M694.24,499.675c-72.398,0.001 -145.841,12.596 -214.573,32.646c68.144,-5.217 159.328,-18.313 214.573,-32.646Z" style="fill-rule:nonzero;stroke:black;stroke-width:15.92px;"/>
        </g>
        <g transform="matrix(1,0,0,1,-357.034,-104.462)">
            <path d="M697.733,597.906c-72.711,-8.176 -148.422,-0.287 -218.204,18.617c64.338,-4.165 156.676,-10.436 218.204,-18.617Z" style="fill-rule:nonzero;stroke:black;stroke-width:15.92px;"/>
        </g>
        <g transform="matrix(0.680089,-0.173805,0.29797,1.16594,-256.549,-63.9765)">
            <path d="M558.832,282.205c15.835,1.954 38.055,41.467 -3.852,1.042c16.817,24.934 31.109,53.694 42.991,81.745c25.178,-73.717 72.983,-135.371 -39.139,-82.787Z" style="fill-rule:nonzero;stroke:black;stroke-width:15.92px;"/>
        </g>
        <g transform="matrix(1,0,0,1,-368.175,-104.462)">
            <path d="M515.219,269.264c-1.383,0.349 -2.804,0.525 -4.23,0.525c-9.5,0 -17.317,-7.817 -17.317,-17.317c0,-4.678 1.896,-9.162 5.251,-12.421c5.579,-5.419 14.683,-7.041 18.473,-13.833c2.292,-4.108 2.004,-9.135 1.324,-13.79c-2.225,-15.237 -7.919,-29.742 -11.195,-44.788c-3.275,-15.046 -3.911,-31.55 3.46,-45.069c7.371,-13.52 24.784,-22.358 38.814,-16.013c13.58,6.141 18.522,22.556 21.956,37.059l8.904,37.597c0.41,2.442 1.305,4.776 2.631,6.866c5.377,7.321 16.954,3.319 25.744,5.606c11.899,3.096 16.942,18.631 12.695,30.169c-4.247,11.538 -14.868,19.459 -25.638,25.39c-26.062,14.352 -56.033,20.965 -85.785,21.026" style="fill:rgb(246,69,81);fill-rule:nonzero;"/>
        </g>
        <g transform="matrix(1,0,0,1,-357.034,-104.462)">
            <path d="M539.306,282.362c48.661,15.437 183.506,-59.067 83.665,-83.54c-21.495,-28.126 -21.839,-130.536 -83.999,-71.054c-30.021,36.629 25.818,84.567 1.738,117.226c-19.57,5.6 -20.924,36.389 2.513,32.307c-45.947,-9.894 46.152,6.256 -3.917,5.061Z" style="fill-rule:nonzero;stroke:black;stroke-width:15.92px;"/>
        </g>
        <g transform="matrix(1,0,0,1,-340.856,-110.167)">
            <path d="M596.821,373.69c-0.782,-4.847 8.557,-9.112 3.96,-10.672c-0.533,7.705 -12.57,5.164 -6.095,11.262c1.413,-2.019 3.941,-2.959 6.33,-2.356c-2.444,-2.332 -2.245,-0.741 -4.496,0.413c1.844,3.632 1.543,4.698 6.515,2.786c1.366,0.408 -1.305,1.614 0.289,0.387c-0.831,-0.18 -4.043,-5.024 -3.82,-2.18c-1.352,-0.827 -1.485,-1.8 -2.453,-2.846c0.57,1.006 -0.979,2.841 0.38,2.208c7.991,8.194 0.231,-7.618 0.786,-2.774c2.086,0.246 4.731,0.161 2.91,-1.964c-6.052,-7.123 -3.67,0.164 -10.159,-0.276c3.565,6.112 0.543,0.219 3.229,-3.053c2.941,-6.336 15.35,-6.072 16.899,0.894c-0.585,9.963 -13.759,18.137 -22.543,13.105c-2.827,-11.979 4.134,-22.814 -2.787,-4.2c0.982,16.673 27.909,7.162 30.857,-4.93c6.295,-24.727 -38.199,-21.937 -34.118,2.511c5.779,16.045 31.359,1.106 25.303,-14.138c-17.032,-7.942 -27.282,23.148 -7.298,21.683c26.359,-14.016 -13.293,-26.995 -10.64,-3.625c13.441,17.739 25.12,-18.782 5.164,-8.244c-2.295,1.044 -2.104,9.349 -1.223,7.291c-0.26,-1.588 0.624,-3.423 1.093,-4.912c4.155,-2.539 5.551,3.926 10.716,-4.145c10.57,2.546 -14.536,-8.582 -15.448,13.342c28.68,7.877 11.105,-34.485 -2.211,-2.84c9.09,-0.193 16.703,-7.006 15.459,-16.292c-4.079,3.362 -7.12,8.723 -6.599,13.565Z" style="fill-rule:nonzero;stroke:black;stroke-width:15.92px;"/>
        </g>
    </g>
</svg>
