<?xml version="1.0" encoding="UTF-8" standalone="no"?>
<!DOCTYPE svg PUBLIC "-//W3C//DTD SVG 1.1//EN" "http://www.w3.org/Graphics/SVG/1.1/DTD/svg11.dtd">
<svg width="100%" height="100%" viewBox="0 0 566 232" version="1.1" xmlns="http://www.w3.org/2000/svg" xmlns:xlink="http://www.w3.org/1999/xlink" xml:space="preserve" xmlns:serif="http://www.serif.com/" style="fill-rule:evenodd;clip-rule:evenodd;stroke-linejoin:round;stroke-miterlimit:2;">
    <g transform="matrix(1.1428,0.235867,-0.230007,1.11441,63.4615,-69.8906)">
        <path d="M49.749,189.105c41.088,-55.214 100.756,-29.598 209.225,-84.391c44.977,-22.72 100.45,-21.567 149.379,-19.662c0.38,0.03 0.712,-0.261 0.741,-0.65c0.03,-0.389 -0.254,-0.734 -0.634,-0.76c-36.827,-2.473 -70.282,-18.837 -152.362,7.529c-51.403,16.512 -110.582,23.029 -154.879,32.78c-44.395,9.773 -65.645,36.051 -65.645,36.051c-7.831,4.011 -11.014,13.788 -7.102,21.819c3.911,8.031 13.445,11.295 21.277,7.284l-0,-0Z" style="fill:rgb(246,69,81);"/>
    </g>
    <g transform="matrix(1.74414,0,0,1.74414,-121.884,-160.956)">
        <g transform="matrix(113.827,0,0,113.827,69.8871,160.003)">
            <path d="M0.223,-0.266c0.004,0.017 0.004,0.031 0.001,0.042c-0.003,0.011 -0.009,0.021 -0.018,0.031c-0.008,0.01 -0.018,0.017 -0.03,0.022c-0.025,0.011 -0.052,0.015 -0.079,0.011c-0.025,0.034 -0.041,0.066 -0.048,0.095c-0.007,0.029 -0.008,0.05 -0.002,0.065c0.006,0.014 0.015,0.023 0.028,0.027c0.013,0.005 0.028,0.005 0.044,0.001c0.017,-0.004 0.032,-0.011 0.046,-0.021c0.014,-0.009 0.026,-0.021 0.035,-0.035c0.009,-0.014 0.013,-0.029 0.011,-0.045c-0.031,-0.006 -0.064,0.01 -0.097,0.048c-0.009,0.01 -0.017,0.019 -0.025,0.027c-0.011,0.005 -0.02,0.004 -0.027,-0.002c-0.007,-0.007 -0.007,-0.016 -0.002,-0.027c0.012,-0.012 0.024,-0.024 0.036,-0.036c0.012,-0.012 0.025,-0.022 0.038,-0.031c0.029,-0.019 0.061,-0.024 0.096,-0.015c0.009,0.003 0.015,0.008 0.018,0.017c0.004,0.025 -0,0.049 -0.012,0.074c-0.012,0.024 -0.028,0.044 -0.049,0.06c-0.021,0.016 -0.044,0.026 -0.07,0.03c-0.026,0.005 -0.051,-0.001 -0.074,-0.017c-0.008,-0.006 -0.015,-0.014 -0.02,-0.024c-0.005,-0.009 -0.01,-0.019 -0.016,-0.029c-0.006,-0.009 -0.008,-0.021 -0.007,-0.036c0.002,-0.015 0.005,-0.028 0.009,-0.039c0.005,-0.011 0.009,-0.021 0.012,-0.03c0.003,-0.009 0.007,-0.017 0.01,-0.025c0.007,-0.015 0.015,-0.03 0.026,-0.044c-0.009,-0.007 -0.01,-0.015 -0.005,-0.024c0.007,-0.012 0.017,-0.015 0.03,-0.008c0.015,-0.019 0.032,-0.037 0.051,-0.052c0.019,-0.016 0.041,-0.025 0.066,-0.027c0.013,-0.001 0.021,0.004 0.024,0.017Zm-0.037,0.026c-0.018,0.006 -0.037,0.02 -0.057,0.042c0.027,-0.003 0.045,-0.013 0.054,-0.029c0.002,-0.003 0.003,-0.007 0.003,-0.013Z" style="fill-rule:nonzero;"/>
        </g>
        <g transform="matrix(113.827,0,0,113.827,106.198,160.003)">
            <path d="M0.193,-0.258c-0.021,0.008 -0.041,0.023 -0.061,0.045c0.006,0.005 0.008,0.011 0.007,0.02c-0.002,0.008 -0.008,0.013 -0.018,0.015c-0.003,0 -0.006,0.002 -0.009,0.005c-0.003,0.003 -0.005,0.005 -0.008,0.006c-0.014,0.007 -0.025,0.004 -0.032,-0.01c-0.002,-0.014 0.003,-0.028 0.015,-0.042c0.012,-0.015 0.022,-0.026 0.029,-0.035c0.008,-0.008 0.015,-0.015 0.02,-0.02c0.008,-0.007 0.027,-0.016 0.058,-0.027c0.007,-0.001 0.013,0.001 0.018,0.006c0.005,0.005 0.011,0.009 0.016,0.013c0.005,0.004 0.01,0.009 0.014,0.016c0.006,0.011 0.01,0.03 0.011,0.057c0.053,-0.017 0.092,-0.019 0.115,-0.006c0.011,0.005 0.022,0.01 0.033,0.015c0.012,0.005 0.021,0.013 0.027,0.025c0.006,0.012 0.01,0.027 0.012,0.046c0.002,0.018 0.001,0.036 -0.003,0.053c-0.009,0.041 -0.031,0.066 -0.065,0.075c-0.013,0.003 -0.022,-0.002 -0.025,-0.013c-0.003,-0.011 0.001,-0.02 0.014,-0.025c0.009,-0.001 0.018,-0.008 0.025,-0.019c0.013,-0.019 0.018,-0.034 0.017,-0.043c-0.001,-0.01 -0.003,-0.019 -0.005,-0.027c-0.002,-0.009 -0.004,-0.018 -0.006,-0.027c-0.006,-0.003 -0.012,-0.007 -0.018,-0.012c-0.005,-0.005 -0.013,-0.008 -0.024,-0.011c-0.023,-0.005 -0.056,-0 -0.1,0.013c-0.009,0.059 -0.027,0.107 -0.052,0.146c-0.008,0.013 -0.016,0.023 -0.024,0.03c-0.008,0.007 -0.019,0.017 -0.032,0.028c-0.014,0.011 -0.029,0.02 -0.044,0.027c-0.038,0.019 -0.066,0.015 -0.084,-0.01c-0.013,-0.02 -0.016,-0.045 -0.008,-0.075c0.01,-0.035 0.032,-0.066 0.065,-0.092c0.045,-0.035 0.093,-0.063 0.142,-0.083c0.001,-0.029 -0.005,-0.051 -0.02,-0.064Zm-0.073,0.265c0.006,-0.005 0.011,-0.01 0.015,-0.015c0.005,-0.005 0.008,-0.009 0.011,-0.012c0.003,-0.004 0.008,-0.011 0.014,-0.02c0.007,-0.009 0.013,-0.02 0.018,-0.032c0.014,-0.03 0.024,-0.056 0.029,-0.078c-0.066,0.027 -0.114,0.061 -0.143,0.1c-0.016,0.023 -0.022,0.044 -0.018,0.064c0.001,0.008 0.002,0.014 0.003,0.017c0.001,0.003 0.002,0.005 0.002,0.005c-0,0.001 0.001,0.001 0.004,0.002c0.003,0.001 0.007,0 0.012,-0.002c0.005,-0.001 0.011,-0.003 0.016,-0.005c0.005,-0.001 0.011,-0.004 0.018,-0.009c0.007,-0.005 0.013,-0.01 0.019,-0.015Z" style="fill-rule:nonzero;"/>
        </g>
        <g transform="matrix(113.827,0,0,113.827,164.363,160.003)">
            <path d="M0.298,-0.212c-0.001,-0.011 -0.006,-0.02 -0.013,-0.027c-0.006,-0.007 -0.019,-0.011 -0.037,-0.011c-0.018,0 -0.04,0.007 -0.065,0.019c-0.025,0.014 -0.049,0.03 -0.071,0.051c-0.022,0.021 -0.04,0.044 -0.054,0.069c-0.014,0.026 -0.02,0.051 -0.017,0.075c0,0.001 0,0.002 0.001,0.003l0,0.003c-0.001,0.011 -0.007,0.018 -0.016,0.021c-0.01,0.003 -0.018,-0.002 -0.023,-0.013c-0.006,-0.029 -0.001,-0.061 0.014,-0.094c0.015,-0.033 0.036,-0.063 0.063,-0.09c0.027,-0.027 0.056,-0.048 0.088,-0.065c0.032,-0.017 0.06,-0.023 0.085,-0.02c0.025,0.003 0.043,0.011 0.056,0.025c0.013,0.013 0.022,0.029 0.027,0.048c0.005,0.018 0.005,0.037 0.002,0.058c-0.003,0.02 -0.01,0.038 -0.021,0.055c-0.011,0.016 -0.018,0.028 -0.023,0.036c-0.005,0.007 -0.011,0.014 -0.016,0.019c-0.008,0.008 -0.026,0.023 -0.055,0.046c-0.011,0.005 -0.019,0.004 -0.026,-0.002c-0.007,-0.007 -0.008,-0.016 -0.003,-0.027c0.009,-0.007 0.019,-0.014 0.029,-0.021c0.009,-0.007 0.017,-0.013 0.024,-0.02c0.006,-0.007 0.012,-0.015 0.019,-0.026c0.006,-0.011 0.012,-0.022 0.017,-0.035c0.005,-0.013 0.009,-0.026 0.012,-0.039c0.003,-0.014 0.004,-0.026 0.003,-0.037Z" style="fill-rule:nonzero;"/>
        </g>
        <g transform="matrix(113.827,0,0,113.827,210.918,160.003)">
            <path d="M-0.046,-0.419c-0.005,0.011 -0.012,0.016 -0.021,0.015c-0.01,-0.001 -0.016,-0.008 -0.018,-0.02c0.007,-0.063 0.043,-0.111 0.106,-0.145c0.041,-0.022 0.071,-0.03 0.09,-0.024c0.01,0.003 0.019,0.006 0.028,0.007c0.008,0.002 0.014,0.006 0.018,0.012c0.004,0.01 0.009,0.02 0.015,0.029c0.005,0.009 0.008,0.02 0.007,0.031c-0.002,0.073 -0.013,0.144 -0.033,0.213c-0.02,0.069 -0.036,0.12 -0.049,0.155c-0.013,0.035 -0.02,0.056 -0.023,0.064c-0.003,0.009 -0.006,0.019 -0.011,0.032c-0.005,0.013 -0.01,0.028 -0.016,0.043c-0.005,0.015 -0.01,0.029 -0.017,0.042c-0.015,0.031 -0.026,0.048 -0.034,0.05c-0.008,0.003 -0.014,0.003 -0.018,0.001c-0.004,-0.001 -0.007,-0.004 -0.009,-0.008c-0.005,-0.009 -0.003,-0.017 0.005,-0.024l-0.001,-0c-0.001,0.001 -0.001,0 0.001,-0.001c0.001,-0.001 0.003,-0.003 0.004,-0.005c0.001,-0.003 0.004,-0.008 0.007,-0.016c0.003,-0.008 0.007,-0.016 0.011,-0.025c0.003,-0.009 0.007,-0.019 0.012,-0.031c0.005,-0.012 0.01,-0.025 0.016,-0.04c0.005,-0.014 0.012,-0.032 0.02,-0.054c0.008,-0.022 0.018,-0.05 0.031,-0.084c0.013,-0.033 0.024,-0.067 0.035,-0.102c0.024,-0.082 0.034,-0.15 0.029,-0.205c-0.001,-0.007 -0.002,-0.014 -0.005,-0.02c-0.003,-0.006 -0.006,-0.012 -0.009,-0.019c-0.007,-0.001 -0.013,-0.003 -0.019,-0.004c-0.006,-0.001 -0.013,-0.002 -0.021,-0.002c-0.009,0.001 -0.019,0.004 -0.031,0.01c-0.012,0.005 -0.024,0.013 -0.036,0.022c-0.025,0.019 -0.041,0.035 -0.048,0.049c-0.008,0.014 -0.012,0.024 -0.013,0.029c-0.001,0.005 -0.002,0.014 -0.003,0.025Z" style="fill-rule:nonzero;"/>
        </g>
        <g transform="matrix(113.827,0,0,113.827,227.878,160.003)">
            <path d="M0.051,0.017c-0.042,-0.003 -0.058,-0.026 -0.048,-0.069c0.004,-0.017 0.011,-0.035 0.021,-0.052c0.011,-0.018 0.021,-0.033 0.031,-0.043c0.01,-0.011 0.025,-0.025 0.046,-0.041c0.019,-0.016 0.041,-0.032 0.065,-0.047c0.057,-0.035 0.1,-0.05 0.131,-0.045c0.007,0.001 0.015,0.003 0.023,0.004c0.008,0.001 0.015,0.003 0.022,0.006c0.032,0.016 0.039,0.049 0.022,0.098c-0.007,0.02 -0.016,0.039 -0.028,0.057c-0.011,0.017 -0.022,0.031 -0.031,0.04c-0.009,0.009 -0.018,0.017 -0.029,0.024c-0.01,0.007 -0.02,0.014 -0.031,0.021c0.012,-0.001 0.023,-0.003 0.035,-0.005c0.01,-0.002 0.02,-0.003 0.028,-0.004c0.008,-0.001 0.018,-0.001 0.029,-0c0.011,0.001 0.023,0.002 0.034,0.003c0.03,0.005 0.053,0.006 0.068,0.003c0.005,0.001 0.011,-0.012 0.018,-0.037c0.005,-0.018 0.008,-0.036 0.011,-0.054c0.003,-0.017 0.005,-0.034 0.008,-0.05c0.01,-0.065 0.022,-0.1 0.036,-0.104c0.012,-0.003 0.02,0.001 0.024,0.012c0.002,0.005 0.001,0.013 -0.004,0.023c-0.004,0.009 -0.008,0.027 -0.013,0.054c-0.004,0.026 -0.009,0.053 -0.014,0.08c-0.005,0.027 -0.011,0.051 -0.019,0.073c-0.007,0.021 -0.017,0.034 -0.03,0.039c-0.013,0.005 -0.025,0.008 -0.038,0.007c-0.012,0 -0.024,-0.001 -0.036,-0.003c-0.035,-0.005 -0.058,-0.008 -0.069,-0.007c-0.011,0.001 -0.023,0.003 -0.034,0.005c-0.011,0.003 -0.023,0.005 -0.035,0.007c-0.028,0.004 -0.049,0.001 -0.062,-0.008c-0.009,-0.009 -0.01,-0.018 -0.004,-0.029c0.008,-0.009 0.017,-0.017 0.027,-0.022c0.011,-0.006 0.021,-0.013 0.032,-0.021c0.011,-0.009 0.023,-0.019 0.036,-0.032c0.014,-0.012 0.026,-0.025 0.035,-0.04c0.023,-0.033 0.027,-0.065 0.012,-0.094c-0.039,-0.009 -0.082,0.001 -0.13,0.028c-0.035,0.02 -0.071,0.049 -0.108,0.088c-0.018,0.02 -0.03,0.037 -0.037,0.052c-0.006,0.014 -0.009,0.025 -0.008,0.032c0.001,0.007 0.006,0.01 0.015,0.011c0.011,0.004 0.017,0.011 0.017,0.021c-0,0.01 -0.006,0.016 -0.018,0.019Z" style="fill-rule:nonzero;"/>
        </g>
        <g transform="matrix(113.827,0,0,113.827,296.971,160.003)">
            <path d="M0.078,-0.243c-0.013,0.002 -0.023,0.005 -0.029,0.008c-0.008,0.002 -0.014,0.005 -0.022,0.007c-0.007,0.002 -0.012,0.002 -0.017,-0.001c-0.004,-0.003 -0.007,-0.006 -0.008,-0.011c-0.003,-0.011 0,-0.019 0.011,-0.024c0.012,-0.004 0.022,-0.008 0.03,-0.013c0.01,-0.005 0.019,-0.006 0.028,-0.005c0.009,0.001 0.019,0.002 0.028,0.002c0.009,0 0.02,0.004 0.032,0.012c0.011,0.008 0.023,0.019 0.036,0.034c0.014,0.014 0.024,0.029 0.031,0.046c0.015,0.036 0.012,0.073 -0.009,0.11c-0.017,0.029 -0.046,0.053 -0.087,0.07c-0.012,0.005 -0.024,0.011 -0.037,0.017c-0.011,0.002 -0.02,-0.002 -0.025,-0.011c-0.005,-0.009 -0.003,-0.018 0.008,-0.025c0.012,-0.005 0.023,-0.01 0.033,-0.014c0.01,-0.004 0.019,-0.008 0.028,-0.013c0.017,-0.009 0.033,-0.024 0.046,-0.045c0.009,-0.014 0.012,-0.03 0.011,-0.047c-0.001,-0.017 -0.006,-0.034 -0.015,-0.049c-0.008,-0.014 -0.019,-0.027 -0.034,-0.036c-0.014,-0.009 -0.027,-0.013 -0.04,-0.011Z" style="fill-rule:nonzero;"/>
        </g>
        <g transform="matrix(113.827,0,0,113.827,324.858,160.003)">
            <path d="M0.272,-0.225c-0.001,0 -0.004,-0.001 -0.01,-0.002c-0.006,-0.001 -0.02,-0 -0.041,0.001c-0.02,0.001 -0.042,0.004 -0.065,0.008c-0.054,0.01 -0.09,0.024 -0.107,0.042c0.007,0.007 0.016,0.012 0.027,0.013c0.011,0.001 0.023,0.004 0.038,0.009c0.015,0.005 0.032,0.009 0.052,0.013c0.02,0.004 0.039,0.009 0.058,0.015c0.043,0.014 0.076,0.034 0.1,0.061c0.006,0.007 0.007,0.014 0.004,0.022c-0.004,0.008 -0.008,0.016 -0.011,0.023c-0.003,0.007 -0.01,0.015 -0.019,0.024c-0.009,0.009 -0.026,0.016 -0.05,0.021c-0.024,0.005 -0.049,0.007 -0.076,0.007c-0.061,-0.001 -0.105,-0.01 -0.132,-0.029c-0.009,-0.007 -0.015,-0.013 -0.018,-0.02c-0.003,-0.006 -0.006,-0.013 -0.008,-0.022c-0.003,-0.009 -0.002,-0.015 0.001,-0.02c0.003,-0.003 0.007,-0.006 0.012,-0.007c0.012,-0.003 0.02,0.003 0.024,0.016c0.003,0.015 0.023,0.026 0.059,0.034c0.029,0.007 0.056,0.01 0.083,0.009c0.047,-0.003 0.074,-0.01 0.082,-0.023c0.003,-0.003 0.005,-0.007 0.006,-0.01c0.001,-0.003 0.003,-0.006 0.005,-0.009c-0.017,-0.018 -0.037,-0.031 -0.06,-0.038c-0.024,-0.007 -0.049,-0.014 -0.075,-0.019c-0.026,-0.005 -0.052,-0.011 -0.077,-0.018c-0.025,-0.007 -0.047,-0.018 -0.066,-0.035c-0.009,-0.009 -0.01,-0.018 -0.004,-0.029c0.001,-0.001 0.004,-0.006 0.011,-0.013c0.007,-0.007 0.014,-0.012 0.022,-0.017c0.007,-0.005 0.023,-0.011 0.046,-0.019c0.023,-0.009 0.048,-0.016 0.075,-0.022c0.065,-0.015 0.11,-0.015 0.134,-0.001l0.001,-0c0.003,0.003 0.006,0.005 0.007,0.006c0.008,0.01 0.009,0.019 0.002,0.026c-0.008,0.007 -0.016,0.009 -0.027,0.005c-0.001,-0.001 -0.002,-0.002 -0.003,-0.002Z" style="fill-rule:nonzero;"/>
        </g>
        <g transform="matrix(113.827,0,0,113.827,370.275,160.003)">
            <path d="M0.078,-0.243c-0.013,0.002 -0.023,0.005 -0.029,0.008c-0.008,0.002 -0.014,0.005 -0.022,0.007c-0.007,0.002 -0.012,0.002 -0.017,-0.001c-0.004,-0.003 -0.007,-0.006 -0.008,-0.011c-0.003,-0.011 0,-0.019 0.011,-0.024c0.012,-0.004 0.022,-0.008 0.03,-0.013c0.01,-0.005 0.019,-0.006 0.028,-0.005c0.009,0.001 0.019,0.002 0.028,0.002c0.009,0 0.02,0.004 0.032,0.012c0.011,0.008 0.023,0.019 0.036,0.034c0.014,0.014 0.024,0.029 0.031,0.046c0.015,0.036 0.012,0.073 -0.009,0.11c-0.017,0.029 -0.046,0.053 -0.087,0.07c-0.012,0.005 -0.024,0.011 -0.037,0.017c-0.011,0.002 -0.02,-0.002 -0.025,-0.011c-0.005,-0.009 -0.003,-0.018 0.008,-0.025c0.012,-0.005 0.023,-0.01 0.033,-0.014c0.01,-0.004 0.019,-0.008 0.028,-0.013c0.017,-0.009 0.033,-0.024 0.046,-0.045c0.009,-0.014 0.012,-0.03 0.011,-0.047c-0.001,-0.017 -0.006,-0.034 -0.015,-0.049c-0.008,-0.014 -0.019,-0.027 -0.034,-0.036c-0.014,-0.009 -0.027,-0.013 -0.04,-0.011Z" style="fill-rule:nonzero;"/>
        </g>
        <g transform="matrix(113.827,0,0,113.827,119.402,214.829)">
            <path d="M0.126,-0.014c0.038,0 0.064,0.001 0.079,0.003c0.015,0.001 0.025,0.003 0.032,0.005c0.016,0.003 0.025,0.003 0.026,0.001c0.001,-0.002 0.002,-0.005 0.003,-0.01c0.001,-0.005 0.001,-0.01 0.002,-0.014c-0,-0.006 0,-0.01 0,-0.014l0,-0.007c0.001,-0.017 0.004,-0.032 0.007,-0.045c0.003,-0.013 0.007,-0.028 0.01,-0.045c0.006,-0.011 0.014,-0.015 0.024,-0.012c0.011,0.003 0.015,0.011 0.014,0.023c-0.001,0.004 -0.003,0.014 -0.005,0.029c-0.001,0.015 -0.003,0.032 -0.006,0.049c-0.008,0.046 -0.015,0.071 -0.021,0.076c-0.005,0.005 -0.012,0.009 -0.02,0.01c-0.007,0.001 -0.015,0.002 -0.023,0.001c-0.008,-0.001 -0.016,-0.002 -0.024,-0.003c-0.008,-0.001 -0.021,-0.002 -0.039,-0.005c-0.047,-0.006 -0.101,-0.004 -0.164,0.005c-0.01,-0.001 -0.017,-0.006 -0.02,-0.015c-0.003,-0.008 -0,-0.015 0.009,-0.022l0.006,-0.002c-0.005,-0.028 0.007,-0.063 0.038,-0.106c0.027,-0.038 0.059,-0.071 0.098,-0.098c0.04,-0.029 0.071,-0.042 0.092,-0.039c0.007,0.001 0.015,0.005 0.022,0.01c0.007,0.005 0.013,0.012 0.015,0.023c0.003,0.01 0.005,0.02 0.005,0.031c0.001,0.011 -0.001,0.021 -0.004,0.03c-0.006,0.017 -0.019,0.036 -0.039,0.056c-0.017,0.021 -0.051,0.046 -0.1,0.075c-0.006,0.004 -0.012,0.007 -0.017,0.01Zm0.054,-0.164c-0.007,0.005 -0.014,0.011 -0.021,0.018c-0.007,0.006 -0.018,0.015 -0.031,0.027c-0.013,0.012 -0.024,0.024 -0.034,0.035c-0.025,0.029 -0.038,0.054 -0.039,0.074c0.057,-0.027 0.098,-0.05 0.123,-0.069c0.025,-0.02 0.043,-0.039 0.055,-0.057c0.011,-0.018 0.015,-0.036 0.01,-0.055c-0.015,-0.006 -0.036,0.003 -0.063,0.027Z" style="fill-rule:nonzero;"/>
        </g>
        <g transform="matrix(113.827,0,0,113.827,164.135,214.829)">
            <path d="M0.08,-0.143c-0.011,-0.007 -0.012,-0.018 -0.004,-0.032c0.008,-0.015 0.014,-0.026 0.018,-0.033c0.004,-0.008 0.007,-0.014 0.01,-0.018c0.004,-0.005 0.017,-0.013 0.038,-0.024c0.009,-0.005 0.017,-0.004 0.024,0.003c0.032,0.033 0.042,0.075 0.03,0.126c0.006,-0.001 0.012,-0.003 0.018,-0.004c0.006,-0.001 0.012,-0.002 0.018,-0.003c0.028,-0.04 0.064,-0.071 0.108,-0.093c0.043,-0.022 0.089,-0.032 0.137,-0.031c0.037,0.001 0.061,0.029 0.072,0.084c0.007,0.033 0.008,0.057 0.004,0.072c-0.003,0.015 -0.008,0.028 -0.015,0.04c-0.013,0.023 -0.029,0.043 -0.05,0.06c-0.006,0.005 -0.013,0.008 -0.021,0.009c-0.009,0.001 -0.017,0.003 -0.024,0.005c-0.007,0.002 -0.013,0.002 -0.017,-0.001c-0.005,-0.003 -0.008,-0.006 -0.009,-0.011c-0.003,-0.011 0.001,-0.02 0.014,-0.025c0.005,-0.001 0.011,-0.002 0.017,-0.003c0.005,-0.001 0.013,-0.004 0.022,-0.009c0.009,-0.005 0.018,-0.017 0.027,-0.036c0.009,-0.019 0.015,-0.038 0.018,-0.058c0.002,-0.02 -0,-0.038 -0.007,-0.055c-0.007,-0.017 -0.019,-0.028 -0.034,-0.031c-0.015,-0.003 -0.031,-0.003 -0.046,0.001c-0.015,0.003 -0.031,0.008 -0.048,0.016c-0.035,0.016 -0.067,0.038 -0.095,0.065c0.027,0.003 0.049,0.013 0.067,0.03c0.02,0.021 0.023,0.044 0.008,0.071c-0.015,0.025 -0.035,0.045 -0.062,0.058c-0.031,0.015 -0.055,0.016 -0.072,0.003c-0.017,-0.011 -0.027,-0.029 -0.03,-0.054c-0.002,-0.019 0.002,-0.04 0.012,-0.063c-0.005,0.001 -0.01,0.002 -0.015,0.003c-0.005,0.001 -0.009,0.003 -0.014,0.004c-0.015,0.031 -0.036,0.059 -0.061,0.086c-0.011,0.012 -0.025,0.021 -0.044,0.027c-0.035,0.011 -0.057,0.011 -0.065,-0.001c-0.009,-0.011 -0.011,-0.023 -0.007,-0.034c0.004,-0.012 0.011,-0.022 0.02,-0.031c0.028,-0.03 0.07,-0.056 0.127,-0.077c0.02,-0.046 0.02,-0.08 -0.001,-0.102c-0.011,0.005 -0.019,0.014 -0.024,0.025c-0.005,0.012 -0.011,0.023 -0.018,0.035c-0.007,0.01 -0.015,0.012 -0.026,0.006Zm0.248,0.086c-0.001,-0.005 -0.003,-0.01 -0.005,-0.014c-0.023,-0.009 -0.047,-0.015 -0.072,-0.016c-0.021,0.032 -0.022,0.06 -0.004,0.084c0.039,-0 0.066,-0.018 0.081,-0.054Zm-0.212,0.008l-0.016,0.009c-0.001,-0 -0.003,0.002 -0.007,0.005c-0.005,0.004 -0.01,0.008 -0.015,0.013c-0.006,0.005 -0.012,0.009 -0.017,0.014c-0.006,0.005 -0.01,0.008 -0.013,0.01c0.024,-0.007 0.047,-0.024 0.068,-0.051Z" style="fill-rule:nonzero;"/>
        </g>
        <g transform="matrix(113.827,0,0,113.827,235.277,214.829)">
            <path d="M0.223,-0.266c0.004,0.017 0.004,0.031 0.001,0.042c-0.003,0.011 -0.009,0.021 -0.018,0.031c-0.008,0.01 -0.018,0.017 -0.03,0.022c-0.025,0.011 -0.052,0.015 -0.079,0.011c-0.025,0.034 -0.041,0.066 -0.048,0.095c-0.007,0.029 -0.008,0.05 -0.002,0.065c0.006,0.014 0.015,0.023 0.028,0.027c0.013,0.005 0.028,0.005 0.044,0.001c0.017,-0.004 0.032,-0.011 0.046,-0.021c0.014,-0.009 0.026,-0.021 0.035,-0.035c0.009,-0.014 0.013,-0.029 0.011,-0.045c-0.031,-0.006 -0.064,0.01 -0.097,0.048c-0.009,0.01 -0.017,0.019 -0.025,0.027c-0.011,0.005 -0.02,0.004 -0.027,-0.002c-0.007,-0.007 -0.007,-0.016 -0.002,-0.027c0.012,-0.012 0.024,-0.024 0.036,-0.036c0.012,-0.012 0.025,-0.022 0.038,-0.031c0.029,-0.019 0.061,-0.024 0.096,-0.015c0.009,0.003 0.015,0.008 0.018,0.017c0.004,0.025 -0,0.049 -0.012,0.074c-0.012,0.024 -0.028,0.044 -0.049,0.06c-0.021,0.016 -0.044,0.026 -0.07,0.03c-0.026,0.005 -0.051,-0.001 -0.074,-0.017c-0.008,-0.006 -0.015,-0.014 -0.02,-0.024c-0.005,-0.009 -0.01,-0.019 -0.016,-0.029c-0.006,-0.009 -0.008,-0.021 -0.007,-0.036c0.002,-0.015 0.005,-0.028 0.009,-0.039c0.005,-0.011 0.009,-0.021 0.012,-0.03c0.003,-0.009 0.007,-0.017 0.01,-0.025c0.007,-0.015 0.015,-0.03 0.026,-0.044c-0.009,-0.007 -0.01,-0.015 -0.005,-0.024c0.007,-0.012 0.017,-0.015 0.03,-0.008c0.015,-0.019 0.032,-0.037 0.051,-0.052c0.019,-0.016 0.041,-0.025 0.066,-0.027c0.013,-0.001 0.021,0.004 0.024,0.017Zm-0.037,0.026c-0.018,0.006 -0.037,0.02 -0.057,0.042c0.027,-0.003 0.045,-0.013 0.054,-0.029c0.002,-0.003 0.003,-0.007 0.003,-0.013Z" style="fill-rule:nonzero;"/>
        </g>
        <g transform="matrix(113.827,0,0,113.827,271.588,214.829)">
            <path d="M0.251,0.017c0.064,-0.003 0.11,-0.004 0.138,-0.003c0.028,0.001 0.053,0.002 0.077,0.003c0.022,0.001 0.042,0.002 0.058,0.003c0.017,0.001 0.028,0.002 0.033,0.002c0.009,-0 0.017,-0 0.023,-0c0.007,-0 0.011,-0 0.013,-0.001c0.002,0 0.004,-0 0.005,0c0.012,-0.008 0.022,-0.008 0.029,-0.001c0.008,0.008 0.008,0.018 -0,0.03c-0.014,0.012 -0.043,0.016 -0.087,0.012c-0.107,-0.009 -0.224,-0.009 -0.351,0c-0.022,0.001 -0.044,0.004 -0.065,0.007c-0.031,0.009 -0.065,0.017 -0.103,0.023c-0.01,-0.001 -0.017,-0.006 -0.02,-0.015c-0.003,-0.008 -0,-0.015 0.009,-0.022c-0.001,-0.001 -0.001,-0.001 -0.001,-0.002c0.002,-0 0.006,-0.002 0.013,-0.005c0.013,-0.007 0.047,-0.014 0.102,-0.022c0.059,-0.019 0.122,-0.051 0.19,-0.095c0.007,-0.005 0.014,-0.01 0.022,-0.015c0.008,-0.006 0.016,-0.013 0.024,-0.02c0.017,-0.016 0.027,-0.032 0.03,-0.048c-0.023,0.001 -0.049,0.013 -0.078,0.034c-0.012,0.009 -0.024,0.017 -0.036,0.026c-0.011,0.008 -0.024,0.014 -0.037,0.018c-0.011,0.002 -0.019,-0 -0.024,-0.007c-0.005,-0.007 -0.004,-0.016 0.001,-0.025c0.017,-0.017 0.031,-0.036 0.041,-0.055c0.021,-0.041 0.024,-0.065 0.01,-0.073c-0.014,-0.008 -0.036,-0.003 -0.067,0.014c-0.007,0.004 -0.015,0.009 -0.026,0.014c-0.032,0.017 -0.06,0.038 -0.084,0.064c0.019,-0.007 0.034,-0.009 0.045,-0.006c0.02,0.006 0.031,0.017 0.032,0.034c0.001,0.017 -0.001,0.031 -0.006,0.043c-0.005,0.012 -0.012,0.023 -0.02,0.034c-0.007,0.011 -0.015,0.019 -0.023,0.025c-0.008,0.006 -0.016,0.012 -0.025,0.017c-0.008,0.006 -0.018,0.01 -0.031,0.012c-0.012,0.002 -0.023,-0 -0.033,-0.007c-0.01,-0.007 -0.017,-0.016 -0.02,-0.027c-0.003,-0.011 -0.004,-0.023 -0.003,-0.035c0.002,-0.018 0.008,-0.038 0.018,-0.062c0.01,-0.023 0.023,-0.042 0.038,-0.058c0.015,-0.017 0.032,-0.032 0.051,-0.046c0.037,-0.027 0.076,-0.046 0.117,-0.056c0.023,-0.006 0.04,-0.006 0.053,0c0.013,0.007 0.021,0.016 0.024,0.028c0.008,0.024 0.005,0.054 -0.01,0.089c0.015,-0.009 0.031,-0.018 0.047,-0.025c0.017,-0.008 0.032,-0.011 0.046,-0.01c0.014,0.001 0.025,0.006 0.032,0.016c0.007,0.009 0.01,0.019 0.009,0.03c-0.001,0.011 -0.005,0.021 -0.011,0.031c-0.011,0.019 -0.026,0.035 -0.045,0.05c-0.047,0.037 -0.088,0.064 -0.124,0.082Zm-0.141,-0.125c-0.005,0.001 -0.011,0.004 -0.016,0.008c-0.005,0.003 -0.009,0.008 -0.012,0.015c-0.002,0.007 -0.006,0.011 -0.013,0.012c-0.007,0.001 -0.012,0 -0.017,-0.004c-0.005,0.016 -0.006,0.033 -0.003,0.05c0.001,0.002 0.004,0.003 0.011,0.003c0.007,-0.001 0.014,-0.003 0.023,-0.008c0.023,-0.012 0.037,-0.032 0.044,-0.061c0.002,-0.007 0.001,-0.012 -0.003,-0.014c-0.003,-0.003 -0.008,-0.003 -0.014,-0.001Z" style="fill-rule:nonzero;"/>
        </g>
        <g transform="matrix(113.827,0,0,113.827,327.476,214.829)">
            <path d="M0.11,-0.161l-0.001,0.036c-0.001,0.013 -0.008,0.02 -0.019,0.021c-0.005,0 -0.009,-0.002 -0.013,-0.005c-0.005,-0.003 -0.007,-0.008 -0.008,-0.015c0.001,-0.046 0.005,-0.092 0.01,-0.137c0.006,-0.044 0.01,-0.09 0.011,-0.136c0.003,-0.012 0.009,-0.018 0.019,-0.018c0.01,0 0.017,0.006 0.021,0.017c-0.002,0.051 -0.008,0.121 -0.018,0.21l0,-0.011c-0.001,0.023 -0.002,0.035 -0.002,0.038Zm0.01,0.12c0.007,0.009 0.008,0.017 0.003,0.024c-0.005,0.007 -0.012,0.01 -0.02,0.009c-0.003,0.003 -0.005,0.005 -0.008,0.008c-0.004,0.003 -0.006,0.005 -0.008,0.008c-0.011,0.005 -0.019,0.004 -0.026,-0.003c-0.007,-0.007 -0.008,-0.015 -0.003,-0.026c0.001,-0.003 0.003,-0.005 0.005,-0.007c0.002,-0.002 0.004,-0.004 0.005,-0.005c0.001,-0.001 0.001,-0.002 0.001,-0.002c0,-0.001 0,-0.001 0.001,-0.002l0.001,0c0,-0.001 0,-0.001 0.001,-0.002l0,0.001c0.001,-0.001 0.004,-0.003 0.008,-0.006c0.013,-0.011 0.026,-0.01 0.04,0.003Zm-0.009,-0.145l0,0.003l0,-0.003Z" style="fill-rule:nonzero;"/>
        </g>
    </g>
</svg>
