<?xml version="1.0" encoding="UTF-8" standalone="no"?>
<!DOCTYPE svg PUBLIC "-//W3C//DTD SVG 1.1//EN" "http://www.w3.org/Graphics/SVG/1.1/DTD/svg11.dtd">
<svg width="100%" height="100%" viewBox="0 0 240 151" version="1.1" xmlns="http://www.w3.org/2000/svg" xmlns:xlink="http://www.w3.org/1999/xlink" xml:space="preserve" xmlns:serif="http://www.serif.com/" style="fill-rule:evenodd;clip-rule:evenodd;stroke-linejoin:round;stroke-miterlimit:2;">
    <g transform="matrix(1.1709,0,0,1.1709,-20.5078,-65.1119)">
        <g transform="matrix(1,0,0,1,-496.788,-240.437)">
            <path d="M593.295,301.964c37.62,-18.924 90.006,9.983 94.055,51.9c4.048,41.916 -41.839,80.314 -82.385,68.939c-40.546,-11.375 -75.474,-88.744 -11.67,-120.839Z" style="fill:rgb(246,69,81);fill-rule:nonzero;"/>
        </g>
        <g transform="matrix(4.12236e-17,0.673233,-0.673233,4.12236e-17,422.955,-283.94)">
            <path d="M667.488,421.103c-4.869,-21.463 -13.09,-41.975 -21.608,-62.209c-7.679,-17.318 -14.748,-35.136 -25.021,-51.119c-5.006,-8.198 -15.719,-14.326 -23.64,-6.125c-8.94,12.209 -13.683,26.988 -20.563,40.395c-15.2,33.336 -30.954,66.45 -44.815,100.374c23.694,-29.831 47.111,-60.074 66.183,-93.136c2.022,-3.611 3.99,-7.255 5.904,-10.929c-0.119,0.382 -0.259,0.947 -0.432,1.774c-11.469,42.915 -17.135,87.372 -17.997,131.755c0.185,43.696 5.425,87.224 12.146,130.346c10.547,-66.744 16.274,-134.499 11.983,-202.049c-0.994,-18.917 -2.665,-37.794 -4.701,-56.626c-0.388,-1.606 -0.298,-5.807 -0.691,-5.792c1.258,-2.422 2.474,-4.864 3.65,-7.325c1.87,3.217 3.699,6.458 5.58,9.664c13.168,23.261 28.077,45.456 43.412,67.33c3.809,5.535 7.57,11.103 11.281,16.704c-0.225,-1.008 -0.437,-2.024 -0.671,-3.032Z" style="fill-rule:nonzero;"/>
        </g>
    </g>
</svg>
