<?xml version="1.0" encoding="utf-8"?>
<!-- Generator: Adobe Illustrator 24.0.0, SVG Export Plug-In . SVG Version: 6.00 Build 0)  -->
<svg version="1.1" id="analytics_icon_svg" xmlns="http://www.w3.org/2000/svg" xmlns:xlink="http://www.w3.org/1999/xlink" x="0px"
	 y="0px" viewBox="0 0 48 48" style="enable-background:new 0 0 48 48;" xml:space="preserve">
<style type="text/css">
	.st0{fill:#F9AB00;}
	.st1{fill:#E37400;}
</style>
<title>GMP_Logo_analytics</title>
<path class="st0" d="M45.3,41.6c0,3.2-2.6,5.9-5.8,5.9c-0.2,0-0.5,0-0.7,0c-3-0.4-5.2-3.1-5.1-6.1V6.6c-0.1-3,2.1-5.6,5.1-6.1
	c3.2-0.4,6.1,1.9,6.5,5.1c0,0.2,0,0.5,0,0.7V41.6z"/>
<path class="st1" d="M8.6,35.9c3.2,0,5.8,2.6,5.8,5.8c0,3.2-2.6,5.8-5.8,5.8s-5.8-2.6-5.8-5.8c0,0,0,0,0,0
	C2.7,38.5,5.4,35.9,8.6,35.9z M23.9,18.2c-3.2,0.2-5.7,2.9-5.7,6.1V40c0,4.2,1.9,6.8,4.6,7.4c3.2,0.6,6.2-1.4,6.9-4.6
	c0.1-0.4,0.1-0.8,0.1-1.2V24.1c0-3.2-2.6-5.9-5.8-5.9C24,18.2,23.9,18.2,23.9,18.2z"/>
</svg>
