<svg width="500" height="500" viewBox="0 0 500 500" fill="none" xmlns="http://www.w3.org/2000/svg">
<path d="M422.894 311.102L306.413 288.42C301.788 313.2 285.326 333.81 263.122 344.145L312.239 451.78C369.636 425.519 410.845 373.128 422.894 311.102Z" fill="#76C349"/>
<path d="M335.565 474.306L266.752 342.333C255.982 348.059 243.695 351.301 230.649 351.301C188.082 351.301 153.575 316.766 153.575 274.163C153.575 231.561 188.082 197.026 230.649 197.026H230.983L230.985 47.4582C137.157 47.4582 53.0885 105.517 19.7525 193.338C-13.5835 281.162 10.7497 380.473 80.8919 442.877C151.034 505.276 252.389 517.788 335.565 474.306Z" fill="#0078D3"/>
<path d="M290.199 225.186C301.149 238.506 307.722 255.568 307.722 274.164C307.722 281.354 306.738 288.313 304.899 294.916L466.869 341.356C486.047 274.292 475.774 202.594 439.323 143.941L290.199 225.186Z" fill="#D6E142"/>
<path d="M230.985 0L230.983 197.026C266.005 197.176 295.512 220.706 304.732 252.825L494.02 199.173C460.71 81.3416 353.287 0 230.985 0Z" fill="#12BDEF"/>
</svg>
