<?xml version="1.0" encoding="UTF-8" standalone="no"?>
<!DOCTYPE svg PUBLIC "-//W3C//DTD SVG 1.1//EN" "http://www.w3.org/Graphics/SVG/1.1/DTD/svg11.dtd">
<svg width="100%" height="100%" viewBox="0 0 113 98" version="1.1" xmlns="http://www.w3.org/2000/svg" xmlns:xlink="http://www.w3.org/1999/xlink" xml:space="preserve" xmlns:serif="http://www.serif.com/" style="fill-rule:evenodd;clip-rule:evenodd;stroke-linejoin:round;stroke-miterlimit:2;">
    <g transform="matrix(1.21652,0,0,1.21652,-92.9984,-94.3764)">
        <g transform="matrix(0.65879,0,0,0.65879,-284.255,-117.452)">
            <path d="M593.295,301.964C630.915,283.04 683.301,311.947 687.35,353.864C691.398,395.78 620.574,426.362 580.028,414.987C539.482,403.612 529.491,334.059 593.295,301.964Z" style="fill:rgb(255,68,0);fill-opacity:0.8;fill-rule:nonzero;"/>
        </g>
        <g transform="matrix(0.1504,0,0,0.1504,84.3127,79.8067)">
            <path d="M345.943,100.588C351.019,89.618 362.127,82 375,82C392.661,82 407,96.339 407,114C407,131.661 392.661,146 375,146C358.125,146 344.283,132.909 343.085,116.335L285.061,104.413L265.528,190.19C309.31,191.94 348.574,205.671 376.822,226.801C384.461,218.908 395.162,214 407,214C430.18,214 449,232.82 449,256C449,274.194 437.406,289.702 421.211,295.531C421.733,299.308 422,303.132 422,307C422,371.574 347.618,424 256,424C164.382,424 90,371.574 90,307C90,303.009 90.284,299.065 90.839,295.176C75.141,289.089 64,273.835 64,256C64,232.82 82.82,214 106,214C117.623,214 128.149,218.731 135.756,226.371C164.536,205.058 204.586,191.378 249.139,190.099L271.2,93.224C272.166,88.98 276.347,86.288 280.61,87.164L345.943,100.588ZM187.075,364.181C204.575,377.439 230.247,384.492 255.966,384.625C281.75,384.758 307.479,377.928 325.023,364.106C327.841,361.886 328.326,357.795 326.106,354.977C323.886,352.159 319.795,351.674 316.977,353.894C301.521,366.072 278.75,371.742 256.034,371.625C233.253,371.508 210.425,365.562 194.925,353.819C192.066,351.653 187.985,352.215 185.819,355.075C183.653,357.934 184.215,362.015 187.075,364.181ZM191,256C208.109,256 222,269.891 222,287C222,304.109 208.109,318 191,318C173.891,318 160,304.109 160,287C160,269.891 173.891,256 191,256ZM321,256C338.109,256 352,269.891 352,287C352,304.109 338.109,318 321,318C303.891,318 290,304.109 290,287C290,269.891 303.891,256 321,256Z" style="fill:white;"/>
        </g>
    </g>
</svg>
