<?xml version="1.0" encoding="UTF-8" standalone="no"?>
<!DOCTYPE svg PUBLIC "-//W3C//DTD SVG 1.1//EN" "http://www.w3.org/Graphics/SVG/1.1/DTD/svg11.dtd">
<svg width="100%" height="100%" viewBox="0 0 113 98" version="1.1" xmlns="http://www.w3.org/2000/svg" xmlns:xlink="http://www.w3.org/1999/xlink" xml:space="preserve" xmlns:serif="http://www.serif.com/" style="fill-rule:evenodd;clip-rule:evenodd;stroke-linejoin:round;stroke-miterlimit:2;">
    <g transform="matrix(1.21652,0,0,1.21652,-92.9984,-94.3764)">
        <g transform="matrix(0.65879,0,0,0.65879,-284.255,-117.452)">
            <path d="M593.295,301.964C630.915,283.04 683.301,311.947 687.35,353.864C691.398,395.78 620.574,426.362 580.028,414.987C539.482,403.612 529.491,334.059 593.295,301.964Z" style="fill:rgb(0,255,53);fill-opacity:0.8;fill-rule:nonzero;"/>
        </g>
        <g id="XMLID_469_" transform="matrix(0.167002,0,0,0.167002,97.1718,92.1395)">
            <path d="M156.734,0C73.318,0 5.454,67.354 5.454,150.143C5.454,176.92 12.62,203.131 26.195,226.071L0.212,302.716C-0.272,304.145 0.088,305.725 1.145,306.801C1.908,307.58 2.943,308 4,308C4.405,308 4.813,307.939 5.211,307.812L85.131,282.416C107.001,294.101 131.719,300.269 156.735,300.269C240.143,300.27 308,232.923 308,150.143C308,67.354 240.143,0 156.734,0ZM156.734,268.994C133.195,268.994 110.396,262.197 90.798,249.337C90.139,248.904 89.374,248.682 88.604,248.682C88.197,248.682 87.789,248.744 87.392,248.87L47.357,261.596L60.281,223.467C60.699,222.233 60.49,220.872 59.72,219.82C44.796,199.428 36.907,175.335 36.907,150.143C36.907,84.6 90.661,31.276 156.733,31.276C222.797,31.276 276.545,84.6 276.545,150.143C276.546,215.678 222.799,268.994 156.734,268.994ZM227.904,176.981C227.304,176.693 204.85,165.636 200.86,164.2C199.231,163.615 197.486,163.044 195.63,163.044C192.598,163.044 190.051,164.555 188.067,167.523C185.824,170.857 179.034,178.794 176.936,181.165C176.662,181.478 176.288,181.852 176.064,181.852C175.863,181.852 172.388,180.421 171.336,179.964C147.249,169.501 128.966,144.34 126.459,140.097C126.101,139.487 126.086,139.21 126.083,139.21C126.171,138.887 126.981,138.075 127.399,137.656C128.622,136.446 129.947,134.851 131.229,133.308C131.836,132.577 132.444,131.845 133.041,131.155C134.901,128.991 135.729,127.311 136.689,125.365L137.192,124.354C139.536,119.697 137.534,115.767 136.887,114.498C136.356,113.436 126.875,90.554 125.867,88.15C123.443,82.349 120.24,79.648 115.789,79.648C115.376,79.648 115.789,79.648 114.057,79.721C111.948,79.81 100.463,81.322 95.385,84.523C90,87.918 80.89,98.74 80.89,117.772C80.89,134.901 91.76,151.074 96.427,157.225C96.543,157.38 96.756,157.695 97.065,158.147C114.938,184.249 137.219,203.593 159.806,212.616C181.551,221.302 191.848,222.306 197.702,222.306L197.703,222.306C200.163,222.306 202.132,222.113 203.869,221.942L204.971,221.837C212.483,221.171 228.991,212.617 232.746,202.182C235.704,193.963 236.484,184.983 234.516,181.724C233.168,179.508 230.845,178.393 227.904,176.981Z" style="fill:white;fill-rule:nonzero;"/>
        </g>
    </g>
</svg>
