<?xml version="1.0" encoding="UTF-8" standalone="no"?>
<!DOCTYPE svg PUBLIC "-//W3C//DTD SVG 1.1//EN" "http://www.w3.org/Graphics/SVG/1.1/DTD/svg11.dtd">
<svg width="100%" height="100%" viewBox="0 0 248 246" version="1.1" xmlns="http://www.w3.org/2000/svg" xmlns:xlink="http://www.w3.org/1999/xlink" xml:space="preserve" xmlns:serif="http://www.serif.com/" style="fill-rule:evenodd;clip-rule:evenodd;stroke-linejoin:round;stroke-miterlimit:2;">
    <g id="Home">
        <g id="Style-Guide---Homepage">
            <g id="Group-29">
                <g id="Rectangle-3">
                    <rect id="path-1" x="0" y="0" width="248" height="246" style="fill:white;"/>
                </g>
                <g id="_--Marketing-Logos-Sprocket" serif:id="--Marketing/Logos/Sprocket" transform="matrix(1,0,0,1,53,49)">
                    <path id="Marketing-Logos-Sprocket" serif:id="Marketing/Logos/Sprocket" d="M103.799,106.777c-11.068,0 -20.04,-8.878 -20.04,-19.829c-0,-10.953 8.972,-19.832 20.04,-19.832c11.067,-0 20.039,8.879 20.039,19.832c0,10.951 -8.972,19.829 -20.039,19.829m5.999,-58.008l-0,-17.642c4.653,-2.175 7.912,-6.833 7.912,-12.239l0,-0.407c0,-7.462 -6.168,-13.566 -13.708,-13.566l-0.409,0c-7.54,0 -13.708,6.104 -13.708,13.566l-0,0.407c-0,5.406 3.259,10.066 7.912,12.241l0,17.64c-6.928,1.059 -13.258,3.887 -18.478,8.049l-48.946,-37.679c0.323,-1.227 0.55,-2.491 0.552,-3.819c0.008,-8.449 -6.903,-15.309 -15.444,-15.32c-8.538,-0.01 -15.471,6.831 -15.481,15.282c-0.01,8.451 6.901,15.31 15.442,15.32c2.783,0.004 5.359,-0.778 7.617,-2.05l48.146,37.066c-4.094,6.116 -6.494,13.442 -6.494,21.33c0,8.256 2.636,15.894 7.09,22.176l-14.641,14.49c-1.157,-0.345 -2.357,-0.584 -3.63,-0.584c-7.017,-0 -12.706,5.628 -12.706,12.572c-0,6.945 5.689,12.574 12.706,12.574c7.018,-0 12.706,-5.629 12.706,-12.574c-0,-1.256 -0.242,-2.445 -0.59,-3.591l14.482,-14.332c6.575,4.964 14.762,7.948 23.671,7.948c21.587,0 39.085,-17.318 39.085,-38.679c-0,-19.339 -14.356,-35.316 -33.086,-38.179" style="fill:rgb(255,122,89);"/>
                </g>
            </g>
        </g>
    </g>
</svg>
