<?xml version="1.0" encoding="UTF-8" standalone="no"?>
<!DOCTYPE svg PUBLIC "-//W3C//DTD SVG 1.1//EN" "http://www.w3.org/Graphics/SVG/1.1/DTD/svg11.dtd">
<svg width="100%" height="100%" viewBox="0 0 465 415" version="1.1" xmlns="http://www.w3.org/2000/svg" xmlns:xlink="http://www.w3.org/1999/xlink" xml:space="preserve" xmlns:serif="http://www.serif.com/" style="fill-rule:evenodd;clip-rule:evenodd;stroke-linejoin:round;stroke-miterlimit:2;">
    <g transform="matrix(1,0,0,1,-367.685,-242.674)">
        <path d="M433.675,352.549c-14.945,14.639 -13.005,41.157 0.74,56.929c13.744,15.772 36.068,21.853 56.958,20.733c20.891,-1.119 40.872,-8.492 59.427,-12.865l-3.64,-58.845c-40.241,0.404 -80.482,0.809 -113.485,-5.952Z" style="fill:rgb(246,69,81);fill-rule:nonzero;"/>
    </g>
    <g transform="matrix(1,0,0,1,-367.685,-242.674)">
        <path d="M827.962,471.713c-2.952,-14.555 -4.965,-29.277 -7.907,-43.835c-4.052,-20.706 -4.463,-46.23 -7.728,-70.722c-2.802,-18.607 -6.765,-37.101 -13.471,-54.723c-3.952,-11.159 -8.743,-22.136 -15.864,-31.667c-9.404,-12.168 -21.717,-23.565 -37.074,-27.117c-11.844,-2.353 -23.841,0.092 -35.62,1.694c-22.535,3.539 -46.162,6.396 -72.111,7.019c-22.949,0.996 -45.922,0.684 -68.884,0.914c-28.012,0.69 -56.045,0.682 -84.045,1.81c-12.605,0.521 -25.148,2.668 -35.856,3.819c-12.38,1.221 -24.834,1.014 -37.245,1.648c-2.56,0.219 -5.116,0.487 -7.662,0.834c2.923,0.059 5.849,0.152 8.764,0.385c-27.19,3.692 -38.356,7.682 -42.154,39.623c-1.034,11.486 -0.417,23.033 -0.09,34.54c0.348,9.744 0.223,19.499 0.672,29.24c1.486,24.682 3.553,49.395 1.726,74.122c-0.415,9.448 -0.553,18.916 -1.647,28.32c-1.226,12.076 -3.175,24.083 -3.677,36.224c-0.142,6.137 -1.02,12.394 0.368,18.441c3.401,10.797 15.529,13.59 25.145,16.474c11.586,3.567 23.196,7.272 35.176,9.279c9.178,1.317 18.465,1.715 27.722,1.19c21.832,-1.02 43.765,-0.746 65.412,-4.165c12.919,-1.864 29.88,-2.854 40.912,-1.57c-2.374,17.692 -0.859,35.545 0.816,53.244c0.758,4.846 0.792,9.92 1.433,14.835c-2.741,7.763 -5.277,15.6 -8.037,23.356c-1.22,3.611 -2.441,7.221 -3.629,10.842c-1.048,2.786 -1.698,6.206 0.59,8.565c2.803,2.953 7.346,2.59 11.098,2.913c6.045,0.205 12.097,0.057 18.124,-0.444c8.261,-0.637 20.108,-2.999 23.877,-3.38c-0.477,0.064 -0.953,0.128 -1.429,0.192c8.648,-1.106 17.386,-1.244 26.05,-2.207c11.466,-1.419 22.991,-2.259 34.473,-3.541c4.869,-0.849 13.553,0.072 13.037,-7.082c-0.664,-12.645 -11.602,-21.005 -19.963,-29.186c-2.725,-2.658 -5.582,-5.184 -8.208,-7.939c1.221,-5.867 1.823,-11.847 1.797,-17.841c0.075,-13.059 -1.109,-26.082 -2.218,-39.083c-0.016,-0.157 -0.043,-0.312 -0.06,-0.469c4.06,-0.609 8.117,-1.227 12.173,-1.802c16.612,-3.047 40.557,-2.334 61.386,-3.09c28.101,-1.701 74.562,4.531 95.51,-15.986c6.905,-5.963 12.364,-13.995 12.587,-23.382c0.674,-10.248 -2.873,-20.213 -4.269,-30.292Zm-264.833,71.819c1.451,0.176 2.806,0.389 4.021,0.65c14.631,2.726 29.25,5.973 44.216,5.887c13.007,-0.002 25.897,-1.811 38.752,-3.736c-1.625,17.626 -2.125,35.017 -5.422,50.265c-1.97,8.985 -4.672,14.792 -9.983,18.783c-1.645,1.247 -6.148,1.215 -12.88,1.377c-10.352,0.203 -20.684,1.001 -30.945,2.39c-8.467,1.018 -12.618,1.116 -14.484,-0.811c-2.09,-3.445 -1.263,-2.024 -2.397,-5.248c-1.418,-6.038 -2.179,-12.22 -3.608,-18.265c-3.603,-18.171 -6.937,-33.59 -7.27,-51.292Zm88.028,61.193c7.442,11.625 20.73,24.034 21.188,35.075c-7.889,0.374 -15.801,0.309 -23.696,0.582c-7.019,0.068 -14.011,0.699 -21.017,1.037c-7.502,0.379 -15.04,0.385 -22.482,1.509c-16.844,2.922 -30.608,6.547 -45.412,6.13c0.123,-0.381 0.203,-0.774 0.241,-1.172c2.317,-10.517 4.137,-21.127 5.926,-31.742c0.527,2.283 1.355,4.485 2.463,6.549c4.717,8.196 15.409,7.167 23.512,6.393c9.712,-1.055 19.446,-1.814 29.189,-2.499c7.038,-0.67 15.23,-0.071 20.58,-5.518c4.573,-4.624 7.777,-10.425 9.255,-16.757c0.086,0.137 0.166,0.277 0.253,0.413Zm171.416,-106.978c-0.002,1.108 -0.024,2.215 -0.099,3.319c-0.024,0.728 -0.088,1.453 -0.19,2.173c-1.522,7.149 -2.237,7.777 -7.706,13.563c-4.601,4.216 -4.18,4.405 -9.201,7.175c-14.95,7.58 -36.587,7.296 -58.26,7.451c-15.594,0.04 -31.177,0.614 -46.768,0.822c-12.121,0.093 -24.273,0.281 -36.283,2.093c-21.573,2.826 -38.108,6.873 -61.171,5.528c-12.156,-0.402 -22.755,-3.73 -37.214,-5.798c-19.331,-2.766 -38.735,0.726 -57.926,3.01c-14.884,1.653 -29.887,1.327 -44.821,2.219c-19.238,1.049 -32.518,0.517 -49.975,-4.726c-7.676,-2.147 -15.267,-4.59 -22.91,-6.851c-8.078,-2.71 -9.854,-3.237 -12.529,-7.937c-1.528,-6.836 1.635,-35.95 3.591,-51.481c1.334,-11.44 1.326,-22.965 1.955,-34.452c1.244,-20.063 -0.113,-40.134 -1.406,-60.158c-0.959,-14.416 -0.773,-28.884 -2.048,-43.283c-0.999,-18.403 -5.064,-41.022 6.073,-56.009c8.024,-7.507 19.093,-9.411 29.384,-12.471c0.102,0.011 0.204,0.017 0.305,0.027c11.318,1.179 22.638,2.544 34.028,2.736c10.115,0.098 20.216,-0.79 30.332,-0.721c16.445,0.141 32.885,0.801 49.333,0.537c19.195,-0.271 38.38,-1.093 57.579,-1.096c30.021,-0.17 60.127,-0.189 90.028,-3.172c22.151,-2.031 48.064,-8.003 63.519,-6.831c18.478,2.371 35.562,21.592 44.151,42.102c1.302,3.387 8.653,22.216 11.048,31.075c3.076,11.61 5.482,23.387 7.206,35.273c2.676,21.493 3.873,53.078 9.799,77.753c2.859,15.379 5.646,30.772 8.361,46.179c0.678,6.01 1.997,8.086 1.815,11.951Z" style="fill-rule:nonzero;"/>
    </g>
    <g transform="matrix(1,0,0,1,-367.685,-242.674)">
        <path d="M402.468,278.449c-9.037,0.224 -9.013,13.464 0.001,13.713c9.037,-0.224 9.014,-13.464 -0.001,-13.713Z" style="fill-rule:nonzero;"/>
    </g>
    <g transform="matrix(1,0,0,1,-367.685,-242.674)">
        <path d="M746.607,296.147c-17.883,-4.542 -36.544,-2.738 -54.807,-2.945c-33,0.21 -65.869,3.059 -98.558,7.468c-20.98,2.501 -42.103,4.235 -63.244,3.455c-16.873,-0.433 -33.759,-1.62 -50.636,-0.753c-28.125,1.636 -56.324,4.198 -83.953,9.857c30.594,-2.037 61.317,-0.674 91.939,0.069c22.718,1.33 45.461,3.32 68.237,2.423c21.448,-0.946 42.719,-3.845 64.034,-6.242c22.741,-2.53 45.57,-4.158 68.315,-6.654c19.951,-1.423 40.805,-6.322 60.38,-3.895c4.486,0.683 8.879,1.873 13.366,2.56c-5.051,-1.706 -9.903,-4.002 -15.073,-5.343Z" style="fill-rule:nonzero;"/>
    </g>
    <g transform="matrix(1,0,0,1,-367.685,-242.674)">
        <path d="M424.038,278.159c-9.037,0.224 -9.014,13.464 0,13.712c9.038,-0.224 9.014,-13.463 0,-13.712Z" style="fill-rule:nonzero;"/>
    </g>
    <g transform="matrix(1,0,0,1,-367.685,-242.674)">
        <path d="M446.443,275.669c-9.037,0.224 -9.013,13.464 0,13.713c9.038,-0.224 9.015,-13.464 0,-13.713Z" style="fill-rule:nonzero;"/>
    </g>
    <g transform="matrix(1,0,0,1,-367.685,-242.674)">
        <path d="M540.596,368.979c-0.94,-6.271 -1.955,-12.537 -3.473,-18.697c-1.175,-4.935 -3.272,-10.52 -8.551,-12.206c-6.508,-1.88 -13.304,-0.759 -19.854,0.311c-10.397,1.595 -15.133,2.595 -24.93,3.216c-21.503,1.589 -52.596,1.188 -69.251,4.45c13.484,-0.03 26.962,1.059 40.411,1.951c13.156,0.802 26.376,1.683 39.553,0.92c8.146,-0.526 16.223,-1.876 24.371,-2.318c4.244,0.127 2.757,-0.197 6.583,0.751c2.661,2.666 6.251,27.354 7.206,37.921c0.717,8.067 -1.053,14.518 -2.092,15.979c-0.782,0.188 -1.752,0.341 -2.192,0.405c0.159,-0.021 0.401,-0.053 0.753,-0.097c-0.6,0.069 -1.197,0.151 -1.795,0.237c0.272,-0.042 0.476,-0.071 0.641,-0.093c-0.184,0.02 -0.423,0.046 -0.747,0.077c-9.206,0.839 -18.463,0.962 -27.688,0.369c-3.924,-0.22 -7.82,-0.782 -11.742,-1.017c-4.822,-0.024 -9.641,0.269 -14.425,0.876c-17.226,1.699 -45.41,10.396 -58.1,3.508c-0.059,-0.041 -0.118,-0.081 -0.177,-0.122c-0.6,-0.664 -0.627,-0.433 -0.925,-1.063c-0.053,-0.129 -0.083,-0.206 -0.108,-0.272c-1.708,-6.716 -1.782,-14.503 -2.675,-22.923c-0.551,-8.216 -2.534,-16.215 -4.178,-24.256c-0.923,-4.836 -1.217,-9.777 -1.967,-14.955c0.101,5.077 -0.174,10.163 0.181,15.232c0.705,8.148 1.812,16.282 1.497,24.48c-0.078,6.179 -0.243,12.364 0.022,18.541c0.19,3.63 0.5,7.651 3.374,10.243c13.427,11.605 49.161,2.518 60.796,1.442c8.631,-1.297 17.402,-1.36 26.051,-0.187c9.396,0.745 18.834,0.794 28.237,0.146c4.071,-0.46 8.783,-0.142 11.97,-3.127c9.182,-10.871 4.82,-26.914 3.224,-39.722Z" style="fill-rule:nonzero;"/>
    </g>
    <g transform="matrix(1,0,0,1,-367.685,-242.674)">
        <path d="M528.377,401.662c-0.345,0.046 -0.28,0.041 -0.001,-0l0.001,-0Z" style="fill-rule:nonzero;"/>
    </g>
    <g transform="matrix(1,0,0,1,-367.685,-242.674)">
        <path d="M527.976,401.709c0.504,-0.057 0.489,-0.067 0,0Z" style="fill-rule:nonzero;"/>
    </g>
    <g transform="matrix(1,0,0,1,-367.685,-242.674)">
        <path d="M702.48,340.082c-17.73,0.536 -35.501,0.059 -53.202,1.304c-13.548,0.987 -26.908,3.559 -40.16,6.448c27.523,-1.412 55.353,-0.174 82.578,-5.062c4.421,-0.834 8.823,-1.77 13.229,-2.68c-0.815,-0.006 -1.63,-0.013 -2.445,-0.01Z" style="fill-rule:nonzero;"/>
    </g>
    <g transform="matrix(1,0,0,1,-367.685,-242.674)">
        <path d="M705.198,368.727c-10.578,-3.884 -22.132,-1.837 -33.148,-1.983c-9.855,0.174 -19.679,1 -29.518,1.521c-8.734,0.349 -17.49,0.513 -26.149,1.818c16.265,1.157 32.477,3.916 48.827,2.41c7.933,-0.504 15.821,-1.508 23.67,-2.739c5.413,-0.81 9.219,-1.61 15.4,-1c0.463,-0 2.098,0.373 0.918,-0.027Z" style="fill-rule:nonzero;"/>
    </g>
    <g transform="matrix(1,0,0,1,-367.685,-242.674)">
        <path d="M620.469,399.597c11.45,0.403 22.907,1.348 34.368,0.828c17.767,-1.18 35.371,-4.152 52.541,-8.872c-31.866,0.378 -56.37,3.667 -86.909,8.044Z" style="fill-rule:nonzero;"/>
    </g>
    <g transform="matrix(1,0,0,1,-367.685,-242.674)">
        <path d="M718.388,434.611c-24.533,-0.595 -48.878,-5.007 -73.469,-3.918c-25.561,0.106 -44.843,5.603 -68.102,6.212c-20.285,1.043 -40.613,-0.747 -60.886,0.606c-14.358,1.134 -28.621,3.243 -42.931,4.848c-17.418,1.867 -34.628,5.337 -51.41,10.364c14.787,-2.438 29.724,-3.859 44.706,-4.253c16.145,-0.181 32.272,-0.969 48.41,-1.404c21.766,0.059 43.525,1.935 65.294,0.726c26.408,-1.216 45.485,-6.147 70.409,-7.502c22.967,-2.253 46.16,-0.696 69.071,-3.663c4.327,-0.549 8.65,-1.134 12.968,-1.753c-4.687,-0.073 -9.374,-0.16 -14.06,-0.263Z" style="fill-rule:nonzero;"/>
    </g>
    <g transform="matrix(1,0,0,1,-367.685,-242.674)">
        <path d="M708.787,458.545c-20.883,0.053 -45.189,4.823 -62.15,6.808c-18.488,2.231 -37.12,2.762 -55.723,3.006c-30.358,0.486 -60.626,2.888 -90.923,4.647c-11.955,0.518 -23.921,0.78 -35.874,1.371c-9.529,0.547 -19.034,1.687 -27.997,5.135c9.545,-2.37 19.351,-2.321 29.107,-1.72c12.597,0.764 25.177,1.87 37.794,2.281c32.23,1.063 64.463,-0.577 96.693,-0.848c17.845,-0.303 35.622,-2.302 53.089,-5.97c19.887,-4.437 39.439,-10.402 59.648,-13.32c3.089,-0.51 6.18,-1.015 9.281,-1.444c-4.315,-0.052 -8.63,-0.034 -12.945,0.054Z" style="fill-rule:nonzero;"/>
    </g>
    <g transform="matrix(1,0,0,1,-367.685,-242.674)">
        <path d="M709.79,491.859c-20.002,1.225 -40.053,1.359 -60.041,2.762c-25.683,2.643 -51.489,2.956 -77.256,4.254c-19.962,0.915 -39.923,1.837 -59.901,2.338c-17.71,1.17 -35.728,1.941 -52.861,6.905c9.414,-1.37 18.938,-1.818 28.438,-1.339c11.703,0.164 23.384,0.762 35.044,1.796c16.53,1.361 33.13,1.696 49.71,1.627c26.694,-0.244 53.374,-1.974 79.623,-7.024c19.147,-2.973 38.348,-5.52 57.237,-9.93c2.64,-0.513 5.309,-0.866 7.992,-1.055c-2.652,-0.274 -5.319,-0.386 -7.985,-0.334Z" style="fill-rule:nonzero;"/>
    </g>
</svg>
