<?xml version="1.0" encoding="UTF-8" standalone="no"?>
<!DOCTYPE svg PUBLIC "-//W3C//DTD SVG 1.1//EN" "http://www.w3.org/Graphics/SVG/1.1/DTD/svg11.dtd">
<svg width="100%" height="100%" viewBox="0 0 726 559" version="1.1" xmlns="http://www.w3.org/2000/svg" xmlns:xlink="http://www.w3.org/1999/xlink" xml:space="preserve" xmlns:serif="http://www.serif.com/" style="fill-rule:evenodd;clip-rule:evenodd;stroke-linejoin:round;stroke-miterlimit:2;">
    <g transform="matrix(1,0,0,1,-237.375,-170.842)">
        <path d="M451.84,261.271c-13.291,-1.129 -27.292,-2.197 -39.643,1.383c-12.351,3.579 -21.913,13.556 -16.915,22.151c5.185,8.915 21.541,11.254 35.36,12.23c166.571,11.736 333.831,9.564 500.041,-6.496c6.642,-0.644 14.251,-1.763 17.368,-5.872c3.361,-4.431 -0.819,-10.157 -7.067,-12.678c-6.249,-2.521 -13.84,-2.684 -21.073,-2.781l-476.188,-6.347" style="fill:rgb(246,69,81);fill-rule:nonzero;"/>
    </g>
    <g transform="matrix(1,0,0,1,-237.375,-170.842)">
        <path d="M447.471,396.053c-13.291,-1.129 -27.292,-2.197 -39.643,1.383c-12.351,3.579 -21.913,13.556 -16.915,22.151c5.185,8.915 21.541,11.254 35.36,12.23c166.571,11.736 333.831,9.564 500.041,-6.496c6.642,-0.644 14.251,-1.763 17.368,-5.872c3.361,-4.431 -0.819,-10.157 -7.067,-12.678c-6.249,-2.521 -13.841,-2.684 -21.073,-2.781l-476.188,-6.347" style="fill:rgb(246,69,81);fill-rule:nonzero;"/>
    </g>
    <g transform="matrix(1,0,0,1,-237.375,-170.842)">
        <path d="M438.4,606.951c-13.291,-1.129 -27.292,-2.197 -39.643,1.382c-12.351,3.579 -21.913,13.557 -16.915,22.151c5.185,8.916 21.541,11.254 35.36,12.23c166.571,11.737 333.831,9.564 500.041,-6.495c6.642,-0.645 14.251,-1.763 17.368,-5.872c3.361,-4.431 -0.819,-10.158 -7.067,-12.679c-6.249,-2.521 -13.84,-2.684 -21.073,-2.78l-476.188,-6.348" style="fill:rgb(246,69,81);fill-rule:nonzero;"/>
    </g>
    <g transform="matrix(1,0,0,1,-237.375,-170.842)">
        <path d="M407.257,251.74c174.331,-21.595 351.979,2.871 526.835,11.111c11.986,2.114 -2.543,13.016 -9.569,10.356c-138.557,-10.614 -277.696,-11.298 -416.351,-2.047c-33.496,0.043 -68.088,9.573 -101.138,4.812c-16.643,-4.273 -15.23,-32.87 4.138,-28.776c-19.501,-4.454 -21.901,24.862 -4.729,29.752c22.846,6.03 47.046,-0.895 70.476,-0.216c141.286,-6.127 282.812,-3.767 423.815,7.069c244.228,-45.595 -467.041,-59.564 -493.477,-32.061Z" style="fill-rule:nonzero;"/>
    </g>
    <g transform="matrix(1,0,0,1,-237.375,-170.842)">
        <path d="M256.446,245.887c42.062,-26.266 50.732,46.705 9.972,50.418c-46.025,-3.199 -2.603,-67.178 -18.879,-46.502c-16.356,15.943 -12.765,46.616 9.271,55.64c63.633,20.929 58.397,-106.013 -0.364,-59.556Z" style="fill-rule:nonzero;"/>
    </g>
    <g transform="matrix(1,0,0,1,-237.375,-170.842)">
        <path d="M407.343,427.875c174.331,-21.595 351.979,2.871 526.834,11.112c11.986,2.113 -2.542,13.016 -9.568,10.355c-138.557,-10.613 -277.696,-11.297 -416.351,-2.047c-33.496,0.044 -68.088,9.573 -101.138,4.812c-16.643,-4.272 -15.23,-32.869 4.138,-28.776c-19.501,-4.454 -21.901,24.862 -4.73,29.752c22.847,6.03 47.047,-0.895 70.477,-0.215c141.286,-6.128 282.812,-3.768 423.815,7.068c244.228,-45.595 -467.041,-59.564 -493.477,-32.061Z" style="fill-rule:nonzero;"/>
    </g>
    <g transform="matrix(1,0,0,1,-237.375,-170.842)">
        <path d="M256.532,422.023c42.062,-26.267 50.732,46.704 9.972,50.418c-46.025,-3.199 -2.603,-67.179 -18.879,-46.503c-13.968,13.947 -14.073,39.408 2.443,51.594c64.412,39.157 72.445,-104.225 6.464,-55.509Z" style="fill-rule:nonzero;"/>
    </g>
    <g transform="matrix(1,0,0,1,-237.375,-170.842)">
        <path d="M418.174,604.01c174.331,-21.595 351.978,2.871 526.834,11.112c11.986,2.113 -2.543,13.016 -9.568,10.355c-138.558,-10.613 -277.697,-11.297 -416.352,-2.047c-33.495,0.044 -68.088,9.573 -101.138,4.812c-16.642,-4.272 -15.229,-32.869 4.138,-28.776c-19.5,-4.454 -21.9,24.862 -4.729,29.752c22.846,6.03 47.046,-0.895 70.476,-0.215c141.286,-6.128 282.813,-3.767 423.816,7.069c244.228,-45.596 -467.042,-59.564 -493.477,-32.062Z" style="fill-rule:nonzero;"/>
    </g>
    <g transform="matrix(1,0,0,1,-237.375,-170.842)">
        <path d="M267.363,598.158c42.061,-26.267 50.731,46.704 9.972,50.418c-46.025,-3.199 -2.604,-67.178 -18.88,-46.502c-16.356,15.943 -12.764,46.615 9.272,55.639c63.633,20.93 58.396,-106.013 -0.364,-59.555Z" style="fill-rule:nonzero;"/>
    </g>
    <g transform="matrix(1,0,0,1,-237.375,-170.842)">
        <path d="M358.06,729.158c10.006,-184.064 7.74,-376.05 -2.619,-558.316c-4.27,175.553 -3.925,412.549 2.619,558.316Z" style="fill-rule:nonzero;"/>
    </g>
    <g transform="matrix(1,0,0,1,-237.375,-170.842)">
        <path d="M268.497,288.765c11.564,-11.86 8.873,-23.821 0.12,-36.371c-5.096,10.834 -5.908,26.182 -0.12,36.371Z" style="fill-rule:nonzero;"/>
    </g>
    <g transform="matrix(1,0,0,1,-237.375,-170.842)">
        <path d="M283.675,269.794c-10.517,-9.51 -16.357,-3.679 -25.927,2.232c6.867,6.457 20.608,6.113 25.927,-2.232Z" style="fill-rule:nonzero;"/>
    </g>
    <g transform="matrix(1,0,0,1,-237.375,-170.842)">
        <path d="M268.183,463.917c11.564,-11.86 8.873,-23.82 0.121,-36.37c-5.096,10.834 -5.909,26.182 -0.121,36.37Z" style="fill-rule:nonzero;"/>
    </g>
    <g transform="matrix(1,0,0,1,-237.375,-170.842)">
        <path d="M283.362,444.947c-10.517,-9.51 -16.356,-3.679 -25.928,2.231c6.868,6.458 20.609,6.114 25.928,-2.231Z" style="fill-rule:nonzero;"/>
    </g>
    <g transform="matrix(1,0,0,1,-237.375,-170.842)">
        <path d="M278.183,639.07c11.564,-11.86 8.873,-23.821 0.121,-36.37c-5.096,10.833 -5.909,26.182 -0.121,36.37Z" style="fill-rule:nonzero;"/>
    </g>
    <g transform="matrix(1,0,0,1,-237.375,-170.842)">
        <path d="M293.362,620.099c-10.517,-9.51 -16.356,-3.678 -25.928,2.232c6.868,6.458 20.609,6.113 25.928,-2.232Z" style="fill-rule:nonzero;"/>
    </g>
</svg>
